PathFileType	4	(X/Y/Z)	OpenSim_Sub02_CSStiffKnee_Magnet.trc
DataRate	CameraRate	NumFrames	NumMarkers	Units	OrigDataRate	OrigDataStartFrame	OrigNumFrames
100	100	33	8	m	100	862	6891
Frame#	Time	torso_imu_offset_imu	pelvis_imu_offset_imu	tibia_r_imu_offset_imu	femur_r_imu_offset_imu	tibia_l_imu_offset_imu	femur_l_imu_offset_imu	toes_r_imu_offset_imu	toes_l_imu_offset_imu
				X1	Y1	Z1	X2	Y2	Z2	X3	Y3	Z3	X4	Y4	Z4	X5	Y5	Z5	X6	Y6	Z6	X7	Y7	Z7	X8		Y8	Z8	

862	8.61000000	-0.96799378	-0.14210665	0.02504751	-0.64878063	0.18782559	-0.69869633	-0.28934631	-0.74101661	-0.31077710	-0.72072970	-0.44385847	0.14986281	-0.65112168	0.57331689	0.03019979	-0.55953891	0.27707551	0.31905364	-0.83495935	-0.48098220	-0.28668733	-0.69683882	-0.17871580	-0.44833835
863	8.62000000	-0.97237877	-0.14446190	0.01580688	-0.65284096	0.19661104	-0.69850030	-0.27816201	-0.74452885	-0.31491486	-0.72197552	-0.44060487	0.14592740	-0.63626189	0.59272705	0.03710354	-0.55818932	0.27503065	0.31369294	-0.84103841	-0.48485182	-0.26650681	-0.68772882	-0.18705731	-0.46211967
864	8.63000000	-0.96691142	-0.14695579	0.01653995	-0.65074820	0.19667605	-0.68635741	-0.26894951	-0.74889597	-0.31822999	-0.72288830	-0.44398563	0.15284718	-0.61736835	0.61177437	0.05800599	-0.55657296	0.26184866	0.33180720	-0.84998689	-0.47957029	-0.25009776	-0.69017511	-0.18015094	-0.46657799
865	8.64000000	-0.96967191	-0.15111901	0.02157795	-0.65326056	0.20380493	-0.69208680	-0.25328709	-0.75945334	-0.31399507	-0.72939055	-0.43690938	0.14461676	-0.60821650	0.62154953	0.05568657	-0.54980653	0.26022399	0.34073832	-0.85727157	-0.48443529	-0.22406114	-0.68541136	-0.17574927	-0.46470872
866	8.65000000	-0.96196667	-0.15211871	0.01464970	-0.65345093	0.20628363	-0.68513419	-0.23905695	-0.75743646	-0.31234131	-0.73103166	-0.43380490	0.15085736	-0.60551169	0.62003013	0.03850975	-0.54905707	0.26032624	0.34217203	-0.86153045	-0.48419368	-0.18912791	-0.68665727	-0.17956589	-0.46609148
867	8.66000000	-0.96685776	-0.15393482	0.01265029	-0.65893549	0.20827577	-0.67735610	-0.22021328	-0.76713735	-0.32343752	-0.73341481	-0.43067772	0.13930759	-0.60746078	0.62690781	0.03185210	-0.54744897	0.25694817	0.34169276	-0.86501962	-0.48722992	-0.15918773	-0.68789762	-0.17475453	-0.46258929
868	8.67000000	-0.96634857	-0.15789577	0.01222204	-0.66504900	0.21734410	-0.67848101	-0.19832376	-0.77138373	-0.32616354	-0.73921927	-0.42169214	0.13147162	-0.60183398	0.63240079	0.01644414	-0.53814497	0.26982281	0.34295943	-0.86813660	-0.49123837	-0.11745461	-0.68671294	-0.16878815	-0.46677936
869	8.68000000	-0.96936126	-0.15317025	0.01481115	-0.66697175	0.21794815	-0.67791730	-0.18318323	-0.76925401	-0.32958079	-0.74964498	-0.41073542	0.12477551	-0.59244830	0.64220302	0.00539571	-0.52955295	0.26837555	0.35282143	-0.87577294	-0.49409899	-0.07145486	-0.68847999	-0.16293234	-0.46878993
870	8.69000000	-0.96941027	-0.16225407	0.01221836	-0.66870877	0.22620598	-0.67584230	-0.15922274	-0.77179260	-0.33954188	-0.75630162	-0.39931528	0.11104808	-0.58571934	0.64513759	0.01193293	-0.52481254	0.27559785	0.35732514	-0.87448833	-0.49758896	-0.02499602	-0.68726350	-0.16778135	-0.47794370
871	8.70000000	-0.96732904	-0.16602168	0.01879626	-0.66972328	0.22490293	-0.67356854	-0.13634374	-0.77377667	-0.34945673	-0.76799970	-0.38977481	0.10435968	-0.58418359	0.65620654	0.02035959	-0.52084145	0.28714479	0.35530880	-0.86913575	-0.49871531	0.02900939	-0.69397945	-0.15601785	-0.47441286
872	8.71000000	-0.97398241	-0.17303437	0.01520157	-0.67298327	0.22585366	-0.67128342	-0.11320243	-0.77593127	-0.35339838	-0.77722536	-0.37090947	0.09372743	-0.57150661	0.65916406	0.02828685	-0.50940841	0.28630216	0.35765821	-0.86201342	-0.50708215	0.08613302	-0.69096645	-0.15252029	-0.47965020
873	8.72000000	-0.96367155	-0.17530576	0.01490810	-0.66768783	0.22990029	-0.67276692	-0.09086289	-0.77379352	-0.35742505	-0.77990751	-0.35660025	0.08103754	-0.57317347	0.66229940	0.02844018	-0.51204315	0.28914672	0.35750064	-0.85468202	-0.51142966	0.12916705	-0.69595152	-0.14476987	-0.47757958
874	8.73000000	-0.96224895	-0.17462844	0.01859942	-0.66500863	0.23305755	-0.67244736	-0.07318307	-0.77050763	-0.35664946	-0.78981263	-0.33948483	0.06754649	-0.56890768	0.66857940	0.02810292	-0.50701386	0.29361526	0.36446602	-0.83118896	-0.52369211	0.16073718	-0.70283800	-0.13715310	-0.49012546
875	8.74000000	-0.96504988	-0.18340320	0.01646558	-0.66731431	0.24104114	-0.66583096	-0.05849231	-0.77955514	-0.35430808	-0.80071850	-0.32411012	0.06065928	-0.55824473	0.67391558	0.03510724	-0.50188172	0.29799890	0.37616287	-0.81381738	-0.54498034	0.17128050	-0.69926423	-0.13495579	-0.48686730
876	8.75000000	-0.96142659	-0.18728009	0.02034678	-0.66412343	0.24222879	-0.67247158	-0.04360634	-0.77951631	-0.34681158	-0.80777276	-0.31443935	0.04942444	-0.55511778	0.68118142	0.02687050	-0.49459716	0.29899699	0.37548896	-0.78949884	-0.57021720	0.15531313	-0.70682088	-0.12729754	-0.49005569
877	8.76000000	-0.96522374	-0.19387584	0.02300958	-0.66046362	0.24542500	-0.67073490	-0.02986491	-0.79249546	-0.33006380	-0.81081920	-0.30287383	0.03730615	-0.55225746	0.67860018	0.02585343	-0.49717808	0.29845180	0.37705189	-0.76243343	-0.60719934	0.13661678	-0.70888935	-0.11911756	-0.48863505
878	8.77000000	-0.96246290	-0.19679998	0.01651472	-0.65811781	0.25073255	-0.67785070	-0.02469509	-0.78790003	-0.32928675	-0.82014983	-0.28637564	0.03347487	-0.54501410	0.68581904	0.02191219	-0.49084374	0.30707941	0.37190389	-0.72977668	-0.64747804	0.10103027	-0.71382590	-0.11539325	-0.48451322
879	8.78000000	-0.96341115	-0.19749659	0.01822280	-0.65417636	0.25139148	-0.67760991	-0.02461610	-0.78872334	-0.33161814	-0.82548781	-0.27464749	0.01848775	-0.53621623	0.69834747	0.01929203	-0.48413482	0.30848225	0.37077980	-0.70019693	-0.67452621	0.07074376	-0.71873573	-0.11360187	-0.48528102
880	8.79000000	-0.96453322	-0.20136277	0.02250291	-0.65129625	0.26125856	-0.67974504	-0.03364015	-0.77456627	-0.35703493	-0.82842810	-0.26120808	0.01060104	-0.52800040	0.70072846	0.02700552	-0.48601163	0.31163769	0.36971274	-0.67356236	-0.69788814	0.03854838	-0.72573377	-0.11056181	-0.48486218
881	8.80000000	-0.95941160	-0.20145345	0.02121275	-0.64680053	0.26797356	-0.67790086	-0.04485126	-0.75841235	-0.39637069	-0.83179697	-0.24870830	0.00792795	-0.52455943	0.70212676	0.02140888	-0.47915043	0.31840961	0.36992962	-0.65662398	-0.70631894	0.01243881	-0.73272240	-0.10483387	-0.48213146
882	8.81000000	-0.95664953	-0.20601935	0.02122649	-0.65100432	0.27135208	-0.68032644	-0.06907712	-0.73238905	-0.43625797	-0.83135551	-0.23697385	0.00248803	-0.52204348	0.71136169	0.02220210	-0.47444842	0.32548415	0.37990310	-0.65022865	-0.71265435	-0.01508064	-0.73874678	-0.10858856	-0.47723928
883	8.82000000	-0.96110561	-0.20749692	0.02999527	-0.64887998	0.28071038	-0.67723407	-0.09216599	-0.70376985	-0.47793601	-0.84103103	-0.21203067	-0.00585295	-0.51465752	0.71751402	0.01993051	-0.46990420	0.33367054	0.37311818	-0.65447609	-0.70630667	-0.04416934	-0.74037941	-0.10787676	-0.46959169
884	8.83000000	-0.95946014	-0.21043920	0.03089210	-0.64839864	0.28445044	-0.67317428	-0.12142918	-0.67533536	-0.50300222	-0.84687960	-0.20721640	-0.01193736	-0.50581438	0.72434495	0.01465842	-0.47111441	0.33755994	0.36686925	-0.66614203	-0.69279294	-0.07151644	-0.74710369	-0.09818915	-0.45865623
885	8.84000000	-0.95586030	-0.21732498	0.03178278	-0.64198416	0.29490779	-0.67481666	-0.13986408	-0.66339236	-0.51975723	-0.85030959	-0.19335286	-0.01477062	-0.50074623	0.73039953	0.01714479	-0.46524030	0.34148986	0.36673390	-0.67903950	-0.67028318	-0.10186452	-0.76089927	-0.09807777	-0.45252638
886	8.85000000	-0.95765162	-0.22274820	0.03349373	-0.63766539	0.29058899	-0.67966561	-0.16533022	-0.64775729	-0.52734179	-0.84866432	-0.18219816	-0.01985882	-0.49700219	0.73517564	0.00872660	-0.46457979	0.34441302	0.37287150	-0.68934734	-0.64228275	-0.13298994	-0.76805568	-0.09194478	-0.44509368
887	8.86000000	-0.95578939	-0.22142247	0.03141238	-0.63458226	0.29890893	-0.68053604	-0.19388023	-0.64549583	-0.52221394	-0.85146934	-0.17301289	-0.02202551	-0.48386492	0.74122003	0.01396848	-0.45909882	0.35053743	0.36849112	-0.69557283	-0.62004178	-0.16756026	-0.77142972	-0.09256924	-0.43335666
888	8.87000000	-0.95502162	-0.22087702	0.03474399	-0.63741806	0.30635141	-0.67636700	-0.21715137	-0.64682207	-0.50599842	-0.85347488	-0.16197270	-0.02566980	-0.47762653	0.74322199	0.01192164	-0.46137469	0.34917050	0.36337946	-0.70268986	-0.59538727	-0.21304775	-0.78294092	-0.09338562	-0.41894960
889	8.88000000	-0.95151670	-0.22683561	0.04233408	-0.63623999	0.30717587	-0.67720946	-0.24700664	-0.65254489	-0.48875428	-0.85342874	-0.15680038	-0.03250990	-0.47190461	0.74836326	0.00778351	-0.45908987	0.34862573	0.36909755	-0.70547347	-0.57276864	-0.24856527	-0.78838172	-0.09409596	-0.40100619
890	8.89000000	-0.95295254	-0.22645646	0.04678124	-0.63232862	0.31202842	-0.67668612	-0.27971352	-0.65236577	-0.46433176	-0.85464744	-0.14195407	-0.03844223	-0.46920393	0.75478269	0.00732935	-0.45873149	0.35557919	0.36865033	-0.69922947	-0.55449152	-0.28821188	-0.79793245	-0.08813368	-0.38908630
891	8.90000000	-0.94881364	-0.22900757	0.04284340	-0.63387788	0.32260637	-0.67894428	-0.31669941	-0.65430448	-0.44462685	-0.85925867	-0.13579981	-0.04706522	-0.46000639	0.76282173	0.00153658	-0.45426728	0.35878441	0.36334158	-0.69505867	-0.54303639	-0.32342607	-0.81052119	-0.09256968	-0.37542216
892	8.91000000	-0.94881594	-0.23082939	0.04934359	-0.63405176	0.31758407	-0.68382075	-0.35098152	-0.64831801	-0.42175923	-0.85975256	-0.13645922	-0.04906044	-0.45443640	0.76834207	-0.00211100	-0.45305098	0.35892607	0.36851595	-0.68646051	-0.52494243	-0.36552468	-0.80837281	-0.09793896	-0.35448061
893	8.92000000	-0.94994831	-0.23325021	0.05710275	-0.62573792	0.32123574	-0.67658016	-0.39210711	-0.63545154	-0.40124931	-0.85577131	-0.13191758	-0.05353451	-0.44947624	0.76390472	0.00093740	-0.45232226	0.36492698	0.36254730	-0.67544588	-0.51434120	-0.40967634	-0.81836923	-0.09488991	-0.34948505
894	8.93000000	-0.95605610	-0.23476701	0.05599457	-0.62427814	0.32435254	-0.67833578	-0.42781837	-0.62253594	-0.38962522	-0.85692493	-0.12375177	-0.05692834	-0.44326755	0.77808483	0.00240910	-0.44921347	0.37233229	0.35204936	-0.66157480	-0.50057748	-0.44554283	-0.82134782	-0.09399519	-0.33376117
